<?xml version="1.0" encoding="utf-8"?>
<!-- Generator: Adobe Illustrator 19.1.0, SVG Export Plug-In . SVG Version: 6.00 Build 0)  -->
<!DOCTYPE svg PUBLIC "-//W3C//DTD SVG 1.1//EN" "http://www.w3.org/Graphics/SVG/1.1/DTD/svg11.dtd">
<svg version="1.1" id="Layer_1" xmlns="http://www.w3.org/2000/svg" xmlns:xlink="http://www.w3.org/1999/xlink" x="0px" y="0px"
	 viewBox="-66 68 16 16" style="enable-background:new -66 68 16 16;" xml:space="preserve">
<path d="M-52.4,81.6h-2.4v-3.7c0-0.9,0-2-1.2-2c-1.2,0-1.4,1-1.4,2v3.8h-2.4V74h2.3v1h0c0.3-0.6,1.1-1.2,2.2-1.2
	c2.4,0,2.8,1.6,2.8,3.6V81.6L-52.4,81.6z M-62.4,73c-0.8,0-1.4-0.6-1.4-1.4c0-0.8,0.6-1.4,1.4-1.4c0.8,0,1.4,0.6,1.4,1.4
	C-61.1,72.3-61.7,73-62.4,73z M-61.3,81.6h-2.4V74h2.4C-61.3,74-61.3,81.6-61.3,81.6z M-51.2,68h-13.6c-0.7,0-1.2,0.5-1.2,1.2v13.7
	c0,0.6,0.5,1.2,1.2,1.2h13.6c0.7,0,1.2-0.5,1.2-1.2V69.2C-50,68.5-50.5,68-51.2,68L-51.2,68z"/>
</svg>
