<?xml version="1.0" encoding="utf-8"?>
<!-- Generator: Adobe Illustrator 19.1.0, SVG Export Plug-In . SVG Version: 6.00 Build 0)  -->
<!DOCTYPE svg PUBLIC "-//W3C//DTD SVG 1.1//EN" "http://www.w3.org/Graphics/SVG/1.1/DTD/svg11.dtd">
<svg version="1.1" id="Layer_1" xmlns="http://www.w3.org/2000/svg" xmlns:xlink="http://www.w3.org/1999/xlink" x="0px" y="0px"
	 viewBox="0 0 29.5 44.6" style="enable-background:new 0 0 29.5 44.6;" xml:space="preserve">
<style type="text/css">
	.st0{fill:none;stroke:#FFFFFF;stroke-width:3;stroke-miterlimit:10;}
	.st1{fill:#FFFFFF;}
</style>
<g>
	
		<image style="overflow:visible;opacity:0.1;" width="391" height="459" xlink:href="C40F2CBD64EEA234.png"  transform="matrix(0.24 0 0 0.24 -34.1635 -30)">
	</image>
	<g>
		<g>
			<g>
				<line class="st0" x1="2.9" y1="34.5" x2="27.4" y2="34.5"/>
				<line class="st0" x1="2.9" y1="42.5" x2="27.4" y2="42.5"/>
			</g>
			<path class="st1" d="M14.8,0c7.9,0,13.9,6,13.9,13.9c0,7.9-6,13.9-13.9,13.9c-7.9,0-13.9-6-13.9-13.9C0.8,6,6.8,0,14.8,0z
				 M14.8,24.4c5.9,0,10.4-4.6,10.4-10.5c0-5.9-4.5-10.5-10.4-10.5C8.9,3.4,4.4,8,4.4,13.9C4.4,19.8,8.9,24.4,14.8,24.4z"/>
		</g>
	</g>
</g>
</svg>
