<?xml version="1.0" encoding="utf-8"?>
<!-- Generator: Adobe Illustrator 19.1.0, SVG Export Plug-In . SVG Version: 6.00 Build 0)  -->
<!DOCTYPE svg PUBLIC "-//W3C//DTD SVG 1.1//EN" "http://www.w3.org/Graphics/SVG/1.1/DTD/svg11.dtd">
<svg version="1.1" id="Layer_1" xmlns="http://www.w3.org/2000/svg" xmlns:xlink="http://www.w3.org/1999/xlink" x="0px" y="0px"
	 viewBox="0 0 252 99.7" style="enable-background:new 0 0 252 99.7;" xml:space="preserve">
<style type="text/css">
	.st0{fill:#5DCAE8;}
	.st1{fill:#409FD8;}
	.st2{fill:#FFFFFF;}
	.st3{fill:#1F191A;}
	.st4{fill:#010101;}
</style>
<g>
	<polygon class="st0" points="42,63.1 -1.7,17.6 -1.5,100.2 	"/>
	<polygon class="st0" points="213.3,1.1 253.3,100.2 253.2,8 	"/>
	<g>
		<polygon class="st0" points="42,100.2 114.5,29.6 143.8,29.6 215.5,100.2 		"/>
		<polyline class="st1" points="42,100.2 114.5,29.6 42,63.1 -1.5,100.2 42,100.2 		"/>
		<polygon class="st1" points="213.3,1.1 143.8,29.6 215.5,100.2 253.3,100.2 		"/>
	</g>
	<g>
		<ellipse class="st2" cx="156.5" cy="60.3" rx="3.6" ry="3.6"/>
		<ellipse class="st3" cx="151.1" cy="85" rx="4.5" ry="1"/>
	</g>
	<g>
		<path class="st2" d="M193.3,21.4c0.6,0.5,0.6,1.4,0.1,2c-0.5,0.6-1.4,0.6-2,0.1c-0.6-0.5-0.6-1.4-0.1-2
			C191.8,20.9,192.7,20.9,193.3,21.4z"/>
		
			<ellipse transform="matrix(0.6628 -0.7488 0.7488 0.6628 42.4827 155.3714)" class="st4" cx="193.8" cy="30.5" rx="2.1" ry="0.5"/>
	</g>
</g>
</svg>
